<mxfile host="app.diagrams.net" agent="Mozilla/5.0 (Windows NT 10.0; Win64; x64) AppleWebKit/537.36 (KHTML, like Gecko) Chrome/133.0.0.0 Safari/537.36" version="26.0.14">
  <diagram name="Seite-1" id="WxDjovM-4V8n2WnOXYon">
    <mxGraphModel dx="1562" dy="810" grid="1" gridSize="10" guides="1" tooltips="1" connect="1" arrows="1" fold="1" page="1" pageScale="1" pageWidth="827" pageHeight="1169" math="0" shadow="0">
      <root>
        <mxCell id="0" />
        <mxCell id="1" parent="0" />
        <mxCell id="61XYDGd2NCtoay3DUTl8-1" value="" style="rounded=0;whiteSpace=wrap;html=1;" parent="1" vertex="1">
          <mxGeometry x="20" y="170" width="1020" height="450" as="geometry" />
        </mxCell>
        <mxCell id="61XYDGd2NCtoay3DUTl8-2" value="&lt;b&gt;Domain&lt;/b&gt;&lt;br&gt;Aggregates, Entities, ValueObjects, Irepository, Events, Rules" style="rounded=0;whiteSpace=wrap;html=1;fillColor=#d5e8d4;strokeColor=#82b366;" parent="1" vertex="1">
          <mxGeometry x="130" y="270" width="350" height="60" as="geometry" />
        </mxCell>
        <mxCell id="61XYDGd2NCtoay3DUTl8-3" value="&lt;b&gt;Application&lt;/b&gt;&lt;br&gt;Commands, Queries, ReadModels, IReadRepository, Policies" style="rounded=0;whiteSpace=wrap;html=1;fillColor=#dae8fc;strokeColor=#6c8ebf;" parent="1" vertex="1">
          <mxGeometry x="570" y="330" width="380" height="60" as="geometry" />
        </mxCell>
        <mxCell id="61XYDGd2NCtoay3DUTl8-4" value="&lt;b&gt;RestApi&lt;/b&gt;&lt;br&gt;Controllers, DTOs, Program.cs" style="rounded=0;whiteSpace=wrap;html=1;fillColor=light-dark(#b0f2c9, #39454E);strokeColor=#23445d;" parent="1" vertex="1">
          <mxGeometry x="610" y="510" width="300" height="60" as="geometry" />
        </mxCell>
        <mxCell id="61XYDGd2NCtoay3DUTl8-5" value="&lt;b&gt;Infrastructure&lt;/b&gt;&lt;br&gt;DbContext, EntityConfigs, Repository, ReadRepository, EventPublishing, Projectors" style="rounded=0;whiteSpace=wrap;html=1;fillColor=#b1ddf0;strokeColor=#10739e;" parent="1" vertex="1">
          <mxGeometry x="50" y="420" width="480" height="60" as="geometry" />
        </mxCell>
        <mxCell id="cP2eNzQ0IeBt83iWZ05u-2" value="" style="endArrow=classic;html=1;rounded=0;entryX=0.5;entryY=1;entryDx=0;entryDy=0;" edge="1" parent="1" target="61XYDGd2NCtoay3DUTl8-2">
          <mxGeometry width="50" height="50" relative="1" as="geometry">
            <mxPoint x="570" y="370" as="sourcePoint" />
            <mxPoint x="620" y="320" as="targetPoint" />
          </mxGeometry>
        </mxCell>
        <mxCell id="cP2eNzQ0IeBt83iWZ05u-3" value="" style="endArrow=classic;html=1;rounded=0;entryX=0.5;entryY=1;entryDx=0;entryDy=0;" edge="1" parent="1" target="61XYDGd2NCtoay3DUTl8-2">
          <mxGeometry width="50" height="50" relative="1" as="geometry">
            <mxPoint x="280" y="420" as="sourcePoint" />
            <mxPoint x="300" y="330" as="targetPoint" />
          </mxGeometry>
        </mxCell>
        <mxCell id="cP2eNzQ0IeBt83iWZ05u-5" value="" style="endArrow=classic;html=1;rounded=0;exitX=1;exitY=0.5;exitDx=0;exitDy=0;" edge="1" parent="1" source="61XYDGd2NCtoay3DUTl8-5">
          <mxGeometry width="50" height="50" relative="1" as="geometry">
            <mxPoint x="710" y="440" as="sourcePoint" />
            <mxPoint x="760" y="390" as="targetPoint" />
          </mxGeometry>
        </mxCell>
        <mxCell id="cP2eNzQ0IeBt83iWZ05u-6" value="" style="endArrow=classic;html=1;rounded=0;entryX=0.5;entryY=1;entryDx=0;entryDy=0;exitX=0.5;exitY=0;exitDx=0;exitDy=0;" edge="1" parent="1" source="61XYDGd2NCtoay3DUTl8-4" target="61XYDGd2NCtoay3DUTl8-3">
          <mxGeometry width="50" height="50" relative="1" as="geometry">
            <mxPoint x="770" y="440" as="sourcePoint" />
            <mxPoint x="820" y="390" as="targetPoint" />
          </mxGeometry>
        </mxCell>
        <mxCell id="cP2eNzQ0IeBt83iWZ05u-7" value="" style="endArrow=classic;html=1;rounded=0;exitX=0;exitY=0.64;exitDx=0;exitDy=0;exitPerimeter=0;" edge="1" parent="1" source="61XYDGd2NCtoay3DUTl8-4">
          <mxGeometry width="50" height="50" relative="1" as="geometry">
            <mxPoint x="430" y="530" as="sourcePoint" />
            <mxPoint x="480" y="480" as="targetPoint" />
          </mxGeometry>
        </mxCell>
        <mxCell id="cP2eNzQ0IeBt83iWZ05u-9" value="&lt;h3&gt;&lt;b&gt;Nutrition, Workout&lt;/b&gt;&lt;/h3&gt;" style="text;html=1;align=center;verticalAlign=middle;whiteSpace=wrap;rounded=0;" vertex="1" parent="1">
          <mxGeometry x="40" y="190" width="160" height="30" as="geometry" />
        </mxCell>
      </root>
    </mxGraphModel>
  </diagram>
</mxfile>
